<?xml version="1.0" encoding="iso-8859-1"?>
<!-- Generator: Adobe Illustrator 19.1.0, SVG Export Plug-In . SVG Version: 6.00 Build 0)  -->
<svg version="1.1" id="Capa_1" xmlns="http://www.w3.org/2000/svg" xmlns:xlink="http://www.w3.org/1999/xlink" x="0px" y="0px"
	 viewBox="0 0 65 65" style="enable-background:new 0 0 65 65;" xml:space="preserve">
<g>
	<g id="group-5svg">
		<path id="path-1_25_" style="fill:#FF917B;" d="M65,53.016c0,4.421-3.582,8.006-8,8.006H15c-4.419,0-8-3.585-8-8.006V16.987
			c0-4.422,3.581-8.006,8-8.006h42c4.418,0,8,3.584,8,8.006V53.016z"/>
		<path id="path-2_25_" style="fill:#EDC951;" d="M65,21.992v-5.827c0-4.253-3.545-7.183-7.794-7.183H14.885
			c-4.25,0-7.885,2.93-7.885,7.183v5.827H65z"/>
		<path id="path-3_25_" d="M51.5,59.021h-42c-5.238,0-9.5-4.265-9.5-9.507V13.485c0-5.243,4.262-9.508,9.5-9.508h42
			c5.238,0,9.5,4.265,9.5,9.508v36.028C61,54.755,56.738,59.021,51.5,59.021z M9.5,6.98C5.916,6.98,3,9.898,3,13.485v36.028
			c0,3.587,2.916,6.505,6.5,6.505h42c3.584,0,6.5-2.918,6.5-6.505V13.485c0-3.587-2.916-6.505-6.5-6.505H9.5z"/>
		<path id="path-4_25_" d="M59.5,20.992h-58c-0.829,0-1.5-0.672-1.5-1.502v-6.213c0-5.04,4.394-9.299,9.595-9.299h42.32
			c5.01,0,9.085,4.172,9.085,9.299v6.213C61,20.319,60.329,20.992,59.5,20.992z M3,17.989h55v-4.712c0-3.471-2.73-6.296-6.085-6.296
			H9.595C6.081,6.98,3,9.922,3,13.276V17.989z"/>
		<path id="path-5_25_" d="M13.111,12.777c0,0.938-0.759,1.699-1.697,1.699c-0.937,0-1.697-0.761-1.697-1.699
			c0-0.939,0.76-1.699,1.697-1.699C12.352,11.078,13.111,11.839,13.111,12.777z"/>
		<path id="path-6_25_" d="M18.769,12.777c0,0.938-0.76,1.699-1.697,1.699c-0.938,0-1.698-0.761-1.698-1.699
			c0-0.939,0.76-1.699,1.698-1.699C18.009,11.078,18.769,11.839,18.769,12.777z"/>
		<path id="path-7_25_" d="M24.427,12.777c0,0.938-0.76,1.699-1.698,1.699c-0.937,0-1.697-0.761-1.697-1.699
			c0-0.939,0.76-1.699,1.697-1.699C23.667,11.078,24.427,11.839,24.427,12.777z"/>
		<path id="path-8_24_" d="M31.5,44.509c-0.829,0-1.5-0.672-1.5-1.501V32c0-0.829,0.671-1.501,1.5-1.501
			c0.829,0,1.5,0.672,1.5,1.501v11.009C33,43.837,32.329,44.509,31.5,44.509z"/>
		<path id="path-9_23_" d="M37,39.005H26c-0.829,0-1.5-0.672-1.5-1.502c0-0.829,0.671-1.501,1.5-1.501h11
			c0.829,0,1.5,0.672,1.5,1.501C38.5,38.333,37.829,39.005,37,39.005z"/>
	</g>
</g>
<g>
</g>
<g>
</g>
<g>
</g>
<g>
</g>
<g>
</g>
<g>
</g>
<g>
</g>
<g>
</g>
<g>
</g>
<g>
</g>
<g>
</g>
<g>
</g>
<g>
</g>
<g>
</g>
<g>
</g>
</svg>
