<?xml version="1.0" encoding="iso-8859-1"?>
<!-- Generator: Adobe Illustrator 19.1.0, SVG Export Plug-In . SVG Version: 6.00 Build 0)  -->
<svg version="1.1" id="Capa_1" xmlns="http://www.w3.org/2000/svg" xmlns:xlink="http://www.w3.org/1999/xlink" x="0px" y="0px"
	 viewBox="0 0 65 65" style="enable-background:new 0 0 65 65;" xml:space="preserve">
<g>
	<g id="group-28svg">
		<path id="path-1_19_" style="fill:#FF917B;" d="M65,53.015c0,4.422-3.582,8.007-8,8.007H15c-4.418,0-8-3.585-8-8.007V16.987
			c0-4.422,3.582-8.006,8-8.006h42c4.418,0,8,3.584,8,8.006V53.015z"/>
		<path id="path-2_19_" style="fill:#EDC951;" d="M65,21.991v-5.727c0-4.253-3.361-7.283-7.611-7.283H15.068
			c-4.25,0-8.068,3.03-8.068,7.283v5.727H65z"/>
		<path id="path-3_19_" d="M51.5,59.02h-42c-5.238,0-9.5-4.265-9.5-9.507V13.485c0-5.243,4.262-9.508,9.5-9.508h42
			c5.238,0,9.5,4.265,9.5,9.508v36.028C61,54.755,56.738,59.02,51.5,59.02z M9.5,6.979c-3.584,0-6.5,2.919-6.5,6.506v36.028
			c0,3.586,2.916,6.505,6.5,6.505h42c3.584,0,6.5-2.919,6.5-6.505V13.485c0-3.587-2.916-6.506-6.5-6.506H9.5z"/>
		<path id="path-4_19_" d="M59.5,20.99h-58c-0.828,0-1.5-0.672-1.5-1.501v-6.113c0-5.007,4.569-9.399,9.778-9.399h42.321
			c4.908,0,8.901,4.216,8.901,9.399v6.113C61,20.319,60.328,20.99,59.5,20.99z M3,17.988h55v-4.612c0-3.587-2.592-6.397-5.901-6.397
			H9.778C6.23,6.979,3,10.029,3,13.376V17.988z"/>
		<path id="path-5_19_" d="M13.294,12.877c0,0.938-0.76,1.698-1.697,1.698s-1.698-0.76-1.698-1.698c0-0.939,0.761-1.699,1.698-1.699
			S13.294,11.938,13.294,12.877z"/>
		<path id="path-6_19_" d="M18.952,12.877c0,0.938-0.76,1.698-1.697,1.698c-0.938,0-1.697-0.76-1.697-1.698
			c0-0.939,0.759-1.699,1.697-1.699C18.192,11.178,18.952,11.938,18.952,12.877z"/>
		<path id="path-7_19_" d="M24.61,12.877c0,0.938-0.759,1.698-1.697,1.698c-0.937,0-1.697-0.76-1.697-1.698
			c0-0.939,0.76-1.699,1.697-1.699C23.851,11.178,24.61,11.938,24.61,12.877z"/>
		<path id="path-8_18_" d="M27.395,40.341c0.099,0.997,0.264,1.739,0.506,2.266c0.336,0.731,0.986,1.134,1.827,1.134
			c0.825,0,1.476-0.405,1.835-1.14c0.27-0.551,0.438-1.285,0.513-2.239l0.619-7.107c0.071-0.684,0.106-1.357,0.106-2.02
			c0-1.214-0.163-2.142-0.502-2.838c-0.293-0.602-0.949-1.319-2.397-1.319c-0.918,0-1.675,0.314-2.25,0.931
			c-0.564,0.602-0.851,1.421-0.851,2.432c0,0.598,0.044,1.583,0.132,2.958L27.395,40.341z"/>
		<path id="path-9_18_" d="M27.672,45.494c-0.57,0.567-0.871,1.295-0.871,2.104c0,0.916,0.326,1.683,0.941,2.219
			c0.59,0.51,1.287,0.769,2.073,0.769c0.782,0,1.476-0.264,2.061-0.786c0.606-0.538,0.925-1.299,0.925-2.202
			c0-0.814-0.308-1.544-0.887-2.109C30.742,44.34,28.816,44.345,27.672,45.494z"/>
	</g>
</g>
<g>
</g>
<g>
</g>
<g>
</g>
<g>
</g>
<g>
</g>
<g>
</g>
<g>
</g>
<g>
</g>
<g>
</g>
<g>
</g>
<g>
</g>
<g>
</g>
<g>
</g>
<g>
</g>
<g>
</g>
</svg>
