<?xml version="1.0" encoding="iso-8859-1"?>
<!-- Generator: Adobe Illustrator 19.1.0, SVG Export Plug-In . SVG Version: 6.00 Build 0)  -->
<svg version="1.1" id="Capa_1" xmlns="http://www.w3.org/2000/svg" xmlns:xlink="http://www.w3.org/1999/xlink" x="0px" y="0px"
	 viewBox="0 0 65 65" style="enable-background:new 0 0 65 65;" xml:space="preserve">
<g>
	<g id="group-24svg">
		<path id="path-1_15_" style="fill:#FF917B;" d="M65,53.015c0,4.422-3.582,8.007-8,8.007H15c-4.419,0-8-3.585-8-8.007V16.987
			c0-4.422,3.581-8.006,8-8.006h42c4.418,0,8,3.584,8,8.006V53.015z"/>
		<path id="path-2_15_" style="fill:#EDC951;" d="M65,21.991v-5.727c0-4.253-3.695-7.283-7.945-7.283h-42.32
			c-4.25,0-7.735,3.03-7.735,7.283v5.727H65z"/>
		<path id="path-3_15_" d="M51.5,59.02h-42c-5.238,0-9.5-4.265-9.5-9.507V13.485c0-5.243,4.262-9.508,9.5-9.508h42
			c5.238,0,9.5,4.265,9.5,9.508v36.028C61,54.755,56.738,59.02,51.5,59.02z M9.5,6.979c-3.584,0-6.5,2.919-6.5,6.506v36.028
			c0,3.586,2.916,6.505,6.5,6.505h42c3.584,0,6.5-2.919,6.5-6.505V13.485c0-3.587-2.916-6.506-6.5-6.506H9.5z"/>
		<path id="path-4_15_" d="M59.5,20.99h-58c-0.829,0-1.5-0.672-1.5-1.501v-6.113c0-5.095,4.325-9.399,9.445-9.399h42.32
			c5.006,0,9.235,4.304,9.235,9.399v6.113C61,20.319,60.329,20.99,59.5,20.99z M3,17.988h55v-4.612c0-3.468-2.855-6.397-6.235-6.397
			H9.445C6.012,6.979,3,9.968,3,13.376V17.988z"/>
		<path id="path-5_15_" d="M12.961,12.877c0,0.938-0.76,1.698-1.697,1.698c-0.938,0-1.698-0.76-1.698-1.698
			c0-0.939,0.76-1.699,1.698-1.699C12.201,11.178,12.961,11.938,12.961,12.877z"/>
		<path id="path-6_15_" d="M18.619,12.877c0,0.938-0.76,1.698-1.698,1.698c-0.937,0-1.697-0.76-1.697-1.698
			c0-0.939,0.76-1.699,1.697-1.699C17.859,11.178,18.619,11.938,18.619,12.877z"/>
		<path id="path-7_15_" d="M24.277,12.877c0,0.938-0.76,1.698-1.697,1.698c-0.938,0-1.698-0.76-1.698-1.698
			c0-0.939,0.76-1.699,1.698-1.699C23.517,11.178,24.277,11.938,24.277,12.877z"/>
		<path id="path-8_14_" d="M41.5,58.52c-0.829,0-1.5-0.673-1.5-1.502V19.99c0-0.829,0.671-1.502,1.5-1.502S43,19.161,43,19.99
			v37.028C43,57.847,42.329,58.52,41.5,58.52z"/>
		<path id="path-9_14_" d="M55,29.997h-8c-0.829,0-1.5-0.672-1.5-1.501s0.671-1.501,1.5-1.501h8c0.829,0,1.5,0.672,1.5,1.501
			S55.829,29.997,55,29.997z"/>
		<path id="path-10_8_" d="M55,39.004h-8c-0.829,0-1.5-0.672-1.5-1.501s0.671-1.501,1.5-1.501h8c0.829,0,1.5,0.672,1.5,1.501
			S55.829,39.004,55,39.004z"/>
		<path id="path-11_1_" d="M55,48.012h-8c-0.829,0-1.5-0.673-1.5-1.502c0-0.828,0.671-1.501,1.5-1.501h8
			c0.829,0,1.5,0.673,1.5,1.501C56.5,47.339,55.829,48.012,55,48.012z"/>
	</g>
</g>
<g>
</g>
<g>
</g>
<g>
</g>
<g>
</g>
<g>
</g>
<g>
</g>
<g>
</g>
<g>
</g>
<g>
</g>
<g>
</g>
<g>
</g>
<g>
</g>
<g>
</g>
<g>
</g>
<g>
</g>
</svg>
