<?xml version="1.0" encoding="iso-8859-1"?>
<!-- Generator: Adobe Illustrator 19.1.0, SVG Export Plug-In . SVG Version: 6.00 Build 0)  -->
<svg version="1.1" id="Capa_1" xmlns="http://www.w3.org/2000/svg" xmlns:xlink="http://www.w3.org/1999/xlink" x="0px" y="0px"
	 viewBox="0 0 65 65" style="enable-background:new 0 0 65 65;" xml:space="preserve">
<g>
	<g id="group-14svg">
		<path id="path-1_4_" style="fill:#FF917B;" d="M65,53.516c0,4.422-3.582,8.007-8,8.007H15c-4.419,0-8-3.585-8-8.007V17.488
			c0-4.422,3.581-8.006,8-8.006h42c4.418,0,8,3.584,8,8.006V53.516z"/>
		<path id="path-2_4_" style="fill:#EDC951;" d="M65,20.49v-4.443c0-4.286-3.472-7.566-7.754-7.566H14.6
			c-4.282,0-7.6,3.28-7.6,7.566v4.443H65z"/>
		<path id="path-3_4_" d="M52.5,59.521h-42c-5.238,0-9.5-4.265-9.5-9.507V13.985c0-5.242,4.262-9.507,9.5-9.507h42
			c5.238,0,9.5,4.265,9.5,9.507v36.029C62,55.256,57.738,59.521,52.5,59.521z M10.5,7.48c-3.584,0-6.5,2.919-6.5,6.505v36.029
			c0,3.586,2.916,6.505,6.5,6.505h42c3.584,0,6.5-2.919,6.5-6.505V13.985c0-3.586-2.916-6.505-6.5-6.505H10.5z"/>
		<path id="path-4_4_" d="M60.5,18.489h-59c-0.829,0-1.5-0.672-1.5-1.501v-3.851c0-5.056,4.649-9.66,9.754-9.66H52.4
			c5.114,0,9.6,4.514,9.6,9.66v3.851C62,17.817,61.329,18.489,60.5,18.489z M3,15.487h56v-2.35c0-3.485-3.146-6.657-6.6-6.657H9.754
			C6.282,6.48,3,9.715,3,13.137V15.487z"/>
		<path id="path-5_4_" d="M13.797,12.633c0,0.945-0.765,1.712-1.71,1.712s-1.711-0.767-1.711-1.712s0.766-1.712,1.711-1.712
			S13.797,11.688,13.797,12.633z"/>
		<path id="path-6_4_" d="M19.498,12.633c0,0.945-0.765,1.712-1.71,1.712c-0.944,0-1.71-0.767-1.71-1.712s0.766-1.712,1.71-1.712
			C18.733,10.921,19.498,11.688,19.498,12.633z"/>
		<path id="path-7_4_" d="M25.2,12.633c0,0.945-0.766,1.712-1.71,1.712c-0.945,0-1.711-0.767-1.711-1.712s0.766-1.712,1.711-1.712
			C24.434,10.921,25.2,11.688,25.2,12.633z"/>
		<path id="path-8_4_" d="M34.526,44.595L34.526,44.595c1.044,0,1.788-1.012,1.478-2.008l-0.701-2.25c0,0,0.496-0.59,0.496-0.998
			c0-0.696-0.563-1.314-1.259-1.314c-0.695,0-1.258,0.537-1.258,1.233c0,0.4,0.452,1.101,0.452,1.101l-0.686,2.234
			C32.742,43.588,33.486,44.595,34.526,44.595z"/>
		<path id="path-9_4_" d="M40.5,49.513h-14c-0.829,0-1.5-0.672-1.5-1.501V36.003c0-0.83,0.671-1.502,1.5-1.502h14
			c0.829,0,1.5,0.672,1.5,1.502v12.009C42,48.841,41.329,49.513,40.5,49.513z M28,46.511h11v-9.007H28V46.511z"/>
		<path id="path-10_2_" d="M40.5,37.003c-0.829,0-1.5-0.672-1.5-1.501v-1.988c0-2.934-2.181-4.989-5.311-5.017
			C30.882,28.524,28,30.396,28,33.514v1.988c0,0.829-0.671,1.501-1.5,1.501S25,36.331,25,35.502v-1.988
			c0-4.459,3.778-7.96,8.625-8.019v-0.001l0.125,0.001c4.712,0.059,8.25,3.487,8.25,8.019v1.988
			C42,36.331,41.329,37.003,40.5,37.003z"/>
	</g>
</g>
<g>
</g>
<g>
</g>
<g>
</g>
<g>
</g>
<g>
</g>
<g>
</g>
<g>
</g>
<g>
</g>
<g>
</g>
<g>
</g>
<g>
</g>
<g>
</g>
<g>
</g>
<g>
</g>
<g>
</g>
</svg>
