<?xml version="1.0" encoding="iso-8859-1"?>
<!-- Generator: Adobe Illustrator 19.1.0, SVG Export Plug-In . SVG Version: 6.00 Build 0)  -->
<svg version="1.1" id="Capa_1" xmlns="http://www.w3.org/2000/svg" xmlns:xlink="http://www.w3.org/1999/xlink" x="0px" y="0px"
	 viewBox="0 0 65 65" style="enable-background:new 0 0 65 65;" xml:space="preserve">
<g>
	<g id="group-23svg">
		<path id="path-1_14_" style="fill:#FF917B;" d="M65,53.015c0,4.422-3.582,8.007-8,8.007H15c-4.418,0-8-3.585-8-8.007V16.987
			c0-4.422,3.582-8.006,8-8.006h42c4.418,0,8,3.584,8,8.006V53.015z"/>
		<path id="path-2_14_" style="fill:#EDC951;" d="M65,21.991v-5.727c0-4.253-3.612-7.283-7.861-7.283H14.818
			c-4.25,0-7.818,3.03-7.818,7.283v5.727H65z"/>
		<path id="path-3_14_" style="fill:#FFFFFF;" d="M38.257,41.069c-0.914,0-1.787,0.28-2.548,0.813l-5.961-3.289
			c0.005-0.063,0.009-0.128,0.009-0.192c0-0.035-0.001-0.069-0.003-0.104l5.884-3.095c0.773,0.566,1.672,0.863,2.619,0.863
			c2.482,0,4.5-2.02,4.5-4.503c0-2.484-2.018-4.504-4.5-4.504c-2.481,0-4.5,2.02-4.5,4.504c0,0.035,0.002,0.069,0.004,0.103
			l-5.883,3.094c-0.776-0.564-1.674-0.862-2.621-0.862c-2.481,0-4.5,2.021-4.5,4.504c0,2.482,2.019,4.503,4.5,4.503
			c0.914,0,1.788-0.279,2.549-0.813l5.961,3.29c-0.006,0.063-0.01,0.127-0.01,0.192c0,2.483,2.019,4.503,4.5,4.503
			c2.482,0,4.5-2.02,4.5-4.503C42.757,43.089,40.739,41.069,38.257,41.069z"/>
		<path id="path-4_14_" d="M51.5,59.02h-42c-5.238,0-9.5-4.265-9.5-9.507V13.485c0-5.243,4.262-9.508,9.5-9.508h42
			c5.238,0,9.5,4.265,9.5,9.508v36.028C61,54.755,56.738,59.02,51.5,59.02z M9.5,6.979c-3.584,0-6.5,2.919-6.5,6.506v36.028
			c0,3.586,2.916,6.505,6.5,6.505h42c3.584,0,6.5-2.919,6.5-6.505V13.485c0-3.587-2.916-6.506-6.5-6.506H9.5z"/>
		<path id="path-5_14_" d="M59.5,20.99h-58c-0.829,0-1.5-0.672-1.5-1.501v-6.113c0-5.007,4.452-9.399,9.528-9.399h42.321
			c5.046,0,9.151,4.216,9.151,9.399v6.113C61,20.319,60.329,20.99,59.5,20.99z M3,17.988h55v-4.612c0-3.468-2.817-6.397-6.151-6.397
			H9.528C6.05,6.979,3,9.968,3,13.376V17.988z"/>
		<path id="path-6_14_" d="M13.044,12.877c0,0.938-0.759,1.698-1.697,1.698c-0.937,0-1.697-0.76-1.697-1.698
			c0-0.939,0.76-1.699,1.697-1.699C12.285,11.178,13.044,11.938,13.044,12.877z"/>
		<path id="path-7_14_" d="M18.702,12.877c0,0.938-0.76,1.698-1.697,1.698c-0.938,0-1.697-0.76-1.697-1.698
			c0-0.939,0.759-1.699,1.697-1.699C17.942,11.178,18.702,11.938,18.702,12.877z"/>
		<path id="path-8_13_" d="M24.36,12.877c0,0.938-0.76,1.698-1.697,1.698c-0.938,0-1.698-0.76-1.698-1.698
			c0-0.939,0.76-1.699,1.698-1.699C23.6,11.178,24.36,11.938,24.36,12.877z"/>
		<path id="path-9_13_" d="M35.257,50.576c-3.067,0-5.604-2.315-5.958-5.291l-4.474-2.47c-0.802,0.388-1.675,0.59-2.568,0.59
			c-3.309,0-6-2.693-6-6.004c0-3.312,2.691-6.005,6-6.005c0.935,0,1.845,0.219,2.673,0.64l4.384-2.306
			c0.406-2.919,2.916-5.173,5.943-5.173c3.308,0,6,2.693,6,6.004s-2.692,6.004-6,6.004c-0.937,0-1.845-0.219-2.673-0.639
			l-2.943,1.548l3.049,1.683c0.801-0.388,1.674-0.59,2.567-0.59c3.308,0,6,2.693,6,6.004C41.257,47.882,38.565,50.576,35.257,50.576
			z M24.806,39.589c0.249,0,0.498,0.061,0.724,0.187l5.961,3.29c0.524,0.289,0.825,0.861,0.769,1.457
			c-0.003,1.704,1.343,3.051,2.997,3.051s3-1.347,3-3.003c0-1.655-1.346-3.002-3-3.002c-0.607,0-1.174,0.183-1.687,0.542
			c-0.469,0.329-1.084,0.363-1.586,0.085l-5.961-3.29c-0.515-0.285-0.817-0.846-0.77-1.433c-0.034-0.588,0.283-1.23,0.803-1.505
			l5.884-3.095c0.506-0.265,1.121-0.22,1.583,0.117c0.519,0.38,1.102,0.573,1.734,0.573c1.654,0,3-1.347,3-3.002
			c0-1.655-1.346-3.002-3-3.002s-3,1.347-3,3.002c0.033,0.588-0.278,1.158-0.799,1.433l-5.882,3.094
			c-0.506,0.266-1.119,0.221-1.581-0.115c-0.523-0.381-1.108-0.575-1.738-0.575c-1.655,0-3,1.347-3,3.003
			c0,1.655,1.345,3.002,3,3.002c0.607,0,1.175-0.183,1.688-0.542C24.202,39.681,24.503,39.589,24.806,39.589z"/>
	</g>
</g>
<g>
</g>
<g>
</g>
<g>
</g>
<g>
</g>
<g>
</g>
<g>
</g>
<g>
</g>
<g>
</g>
<g>
</g>
<g>
</g>
<g>
</g>
<g>
</g>
<g>
</g>
<g>
</g>
<g>
</g>
</svg>
